<?xml version="1.0" encoding="utf-8"?>
<!-- Generator: Adobe Illustrator 18.0.0, SVG Export Plug-In . SVG Version: 6.00 Build 0)  -->
<!DOCTYPE svg PUBLIC "-//W3C//DTD SVG 1.1//EN" "http://www.w3.org/Graphics/SVG/1.1/DTD/svg11.dtd">
<svg version="1.1" id="Capa_1" xmlns="http://www.w3.org/2000/svg" xmlns:xlink="http://www.w3.org/1999/xlink" x="0px" y="0px"
	 viewBox="0 0 512 512" enable-background="new 0 0 512 512" xml:space="preserve">
<g>
	<path fill="#FFFFFF" d="M493.3,210.8h-35.5v-72.9c0-10.3-8.4-18.7-18.7-18.7h-23.3V75.5c0-10.3-8.4-18.7-18.7-18.7H60.8
		C50.4,56.8,42,65.2,42,75.5v43.7H18.7C8.4,119.2,0,127.6,0,137.9v298.5c0,10.3,8.4,18.7,18.7,18.7h420.4c10.3,0,18.7-8.4,18.7-18.7
		v-72h35.5c10.3,0,18.7-8.4,18.7-18.7V229.5C512,219.2,503.6,210.8,493.3,210.8z M79.5,94.3h298.8v24.9H79.5V94.3z M420.4,417.7
		H37.4V156.7h382.9v54.1h-90.7c-10.3,0-18.7,8.4-18.7,18.7v116.2c0,10.3,8.4,18.7,18.7,18.7h90.7V417.7z M474.6,327H348.4v-78.7
		h126.2V327z"/>
	<circle fill="#FFFFFF" cx="411.5" cy="287.6" r="29"/>
</g>
</svg>
