<?xml version="1.0" encoding="utf-8"?>
<!-- Generator: Adobe Illustrator 18.0.0, SVG Export Plug-In . SVG Version: 6.00 Build 0)  -->
<!DOCTYPE svg PUBLIC "-//W3C//DTD SVG 1.1//EN" "http://www.w3.org/Graphics/SVG/1.1/DTD/svg11.dtd">
<svg version="1.1" id="Слой_1" xmlns="http://www.w3.org/2000/svg" xmlns:xlink="http://www.w3.org/1999/xlink" x="0px" y="0px"
	 viewBox="0 0 512 512" enable-background="new 0 0 512 512" xml:space="preserve">
<g>
	<path fill="#FFFFFF" d="M84.9,154.5h208.2c8.2,0,14.9-6.7,14.9-14.9s-6.7-14.9-14.9-14.9H84.9c-8.2,0-14.9,6.7-14.9,14.9
		C70,147.9,76.6,154.5,84.9,154.5z"/>
	<path fill="#FFFFFF" d="M84.9,205.8h208.2c8.2,0,14.9-6.7,14.9-14.9s-6.7-14.9-14.9-14.9H84.9c-8.2,0-14.9,6.7-14.9,14.9
		S76.6,205.8,84.9,205.8z"/>
	<path fill="#FFFFFF" d="M195,381.1H84.9c-8.2,0-14.9,6.7-14.9,14.9c0,8.2,6.7,14.9,14.9,14.9H195c8.2,0,14.9-6.7,14.9-14.9
		C209.9,387.7,203.3,381.1,195,381.1z"/>
	<path fill="#FFFFFF" d="M504.8,44.6l-43.9-26.3c-3.4-2-7.5-2.6-11.3-1.7c-3.8,1-7.1,3.4-9.2,6.8L364,150.7V60.5
		c0-8.2-6.7-14.9-14.9-14.9H14.9C6.7,45.5,0,52.2,0,60.5v420.5c0,8.2,6.7,14.9,14.9,14.9h334.2c8.2,0,14.9-6.7,14.9-14.9V308.1
		L509.9,65.1C514.1,58,511.8,48.8,504.8,44.6L504.8,44.6z M312,336.8l-24.8,20.6l6.5-31.5L436.9,87.2l18.3,11L312,336.8L312,336.8z
		 M470.5,72.6l-18.3-11l6.1-10.1l18.3,11L470.5,72.6z M29.8,466V75.4h304.3v125l-26.4,43.9c0.1-0.7,0.2-1.4,0.2-2.2
		c0-8.2-6.7-14.9-14.9-14.9H84.9c-8.2,0-14.9,6.7-14.9,14.9s6.7,14.9,14.9,14.9h208.2c3.3,0,6.4-1.1,8.9-2.9l-14.6,24.4H84.9
		c-8.2,0-14.9,6.7-14.9,14.9c0,8.2,6.7,14.9,14.9,14.9h184.5l-2.6,4.3c-0.9,1.4-1.5,3-1.8,4.7l-2.6,12.5H84.9
		c-8.2,0-14.9,6.7-14.9,14.9c0,8.2,6.7,14.9,14.9,14.9h171.4l-6.9,33.3c-1.3,6.2,1.5,12.5,6.9,15.8c2.4,1.4,5,2.1,7.7,2.1
		c3.4,0,6.8-1.2,9.5-3.4l59.4-49.3c0.4-0.3,0.8-0.7,1.1-1.1v109L29.8,466L29.8,466z"/>
</g>
</svg>
