<?xml version="1.0" encoding="utf-8"?>
<!-- Generator: Adobe Illustrator 18.0.0, SVG Export Plug-In . SVG Version: 6.00 Build 0)  -->
<!DOCTYPE svg PUBLIC "-//W3C//DTD SVG 1.1//EN" "http://www.w3.org/Graphics/SVG/1.1/DTD/svg11.dtd">
<svg version="1.1" id="Capa_1" xmlns="http://www.w3.org/2000/svg" xmlns:xlink="http://www.w3.org/1999/xlink" x="0px" y="0px"
	 viewBox="0 0 512 512" enable-background="new 0 0 512 512" xml:space="preserve">
<g>
	<path fill="#FFFFFF" d="M460.1,415.5L512,166.1l-51,0v-17.9c0-30.3-24.6-54.9-54.9-54.9H217.3l-54-49.1H54.9
		C24.6,44.3,0,68.9,0,99.1v313.7c0,30.3,24.6,54.9,54.9,54.9l324.7,0l26.6,0c0.3,0,0.6-0.1,0.9-0.1
		C435.6,466.7,458.7,444,460.1,415.5z M39.4,412.8V99.1c0-8.5,7-15.5,15.5-15.5H148l54,49.1h204.1c8.5,0,15.5,7,15.5,15.5v17.9
		H117.8l-51,262.2H54.9C46.3,428.4,39.4,421.4,39.4,412.8z M106.9,428.4l43.3-222.9h271.4H444h19.6l-42.3,203.3
		c-0.2,0.9-0.2,1.8-0.3,2.7c0,0.4-0.1,0.9-0.1,1.3c0,0,0,0,0,0c0,8.5-7,15.5-15.5,15.5H106.9z"/>
</g>
</svg>
