<?xml version="1.0" encoding="utf-8"?>
<!-- Generator: Adobe Illustrator 18.0.0, SVG Export Plug-In . SVG Version: 6.00 Build 0)  -->
<!DOCTYPE svg PUBLIC "-//W3C//DTD SVG 1.1//EN" "http://www.w3.org/Graphics/SVG/1.1/DTD/svg11.dtd">
<svg version="1.1" id="Capa_1" xmlns="http://www.w3.org/2000/svg" xmlns:xlink="http://www.w3.org/1999/xlink" x="0px" y="0px"
	 viewBox="0 0 512 512" enable-background="new 0 0 512 512" xml:space="preserve">
<g>
	<g>
		<path fill="#FFFFFF" d="M380.6,312.5c48.3-79.1,38.5-183.9-29.8-252.3C270.6-20,140.2-20,60.1,60.1s-80.1,210.5,0,290.5
			c68.3,68.3,173.2,78.1,252.3,29.8l117.4,117.4c18.8,18.8,49.3,18.8,68.1,0c18.8-18.8,18.8-49.3,0-68.1L380.6,312.5z M308.3,308.3
			c-56.7,56.7-149,56.7-205.6,0c-56.7-56.7-56.7-149,0-205.6c56.7-56.7,149-56.7,205.6,0C364.9,159.3,364.9,251.6,308.3,308.3z
			 M229.5,179.4h62v47.3h-62v62h-47.3v-62h-61.9v-47.3h62v-62h47.3v62H229.5z"/>
	</g>
</g>
</svg>
