<?xml version="1.0" encoding="utf-8"?>
<!-- Generator: Adobe Illustrator 18.0.0, SVG Export Plug-In . SVG Version: 6.00 Build 0)  -->
<!DOCTYPE svg PUBLIC "-//W3C//DTD SVG 1.1//EN" "http://www.w3.org/Graphics/SVG/1.1/DTD/svg11.dtd">
<svg version="1.1" id="Layer_1" xmlns="http://www.w3.org/2000/svg" xmlns:xlink="http://www.w3.org/1999/xlink" x="0px" y="0px"
	 viewBox="0 0 512 512" enable-background="new 0 0 512 512" xml:space="preserve">
<g>
	<g>
		<g>
			<path fill="#FFFFFF" d="M256,149.3c-82.5,0-149.3,66.9-149.3,149.3S173.5,448,256,448s149.3-66.9,149.3-149.3
				S338.5,149.3,256,149.3z M256,405.3c-58.9,0-106.7-47.8-106.7-106.7c0-58.9,47.7-106.7,106.7-106.7s106.7,47.8,106.7,106.7
				C362.7,357.6,314.9,405.3,256,405.3z"/>
			<path fill="#FFFFFF" d="M422.7,42.7h-60.1V32.5c0-17.9-14.5-32.5-32.5-32.5H181.8c-17.9,0-32.5,14.5-32.5,32.5v10.2H89.3
				c-25.7,0-46.6,20.9-46.6,46.6v376.1c0,25.7,20.9,46.6,46.6,46.6h333.5c25.7,0,46.6-20.9,46.6-46.6V89.3
				C469.3,63.5,448.5,42.7,422.7,42.7z M192,42.7h128v42.7H192V42.7z M426.7,465.4c0,2.2-1.8,3.9-3.9,3.9H89.3
				c-2.2,0-3.9-1.8-3.9-3.9V89.3c0-2.2,1.8-3.9,3.9-3.9h60.1v10.2c0,17.9,14.5,32.5,32.5,32.5h0h148.3h0c17.9,0,32.5-14.5,32.5-32.5
				V85.3h60.1c2.2,0,3.9,1.8,3.9,3.9V465.4z"/>
			<polygon fill="#FFFFFF" points="274.5,274.2 255.1,234.7 235.6,274.2 192,280.5 223.5,311.2 216.1,354.6 255.1,334.1 294,354.6 
				286.6,311.2 318.1,280.5 			"/>
		</g>
	</g>
</g>
</svg>
